<?xml version="1.0" encoding="utf-8"?>
<!-- Generator: Adobe Adobe Illustrator 24.2.0, SVG Export Plug-In . SVG Version: 6.00 Build 0)  -->
<svg version="1.1" xmlns="http://www.w3.org/2000/svg" xmlns:xlink="http://www.w3.org/1999/xlink" x="0px" y="0px"
	 viewBox="0 0 1024 1024" style="enable-background:new 0 0 1024 1024;" xml:space="preserve">
<style type="text/css">
	.st0{fill:#AAC3C6;}
	.st1{fill:#60CFE3;}
	.st2{fill:#3EA2C2;}
	.st3{fill:#BDC9C9;}
	.st4{fill:#E2E8E8;}
	.st5{fill:#B6EEF7;}
	.st6{fill:#52DEFD;}
	.st7{fill:#FFFFFF;}
	.st8{fill:#81E7F9;}
	.st9{fill:#141524;}
</style>
<g id="레이어_2">
	<rect class="st0" width="1024" height="1024"/>
</g>
<g id="레이어_3">
	<ellipse class="st1" cx="486.3" cy="743.58" rx="231" ry="42"/>
</g>
<g id="레이어_5">
	<ellipse class="st2" cx="491.4" cy="737.89" rx="99.5" ry="8"/>
</g>
<g id="레이어_11">
	<path class="st3" d="M621.54,469.76c34.46-10.66,68.91-21.32,103.37-31.98c1.48-0.46,3.28-0.86,4.43,0.18c0.98,0.88,1,2.4,0.81,3.7
		c-1.31,9.31-8.9,16.37-16.47,21.94C687.41,482.91,655.28,494.13,621.54,469.76z"/>
	<path class="st3" d="M257.45,441.89c0.54-5.34,2.46-10.53,5.52-14.93c10.85,11.78,27.84,15.03,43.43,18.7
		c22.07,5.18,43.66,12.43,64.39,21.62c-2.59,14.77-11.95,28.22-23.33,36.29c-15.09-9.5-30.67-18.21-46.66-26.08
		C282.46,468.45,255.76,458.75,257.45,441.89z"/>
</g>
<g id="레이어_8">
	<path class="st4" d="M264.95,435.76c0,0,46.1,42.25,89.85,47.92l0.45,178.07c0,0,89.67,51.96,124.05,53.17
		c41.43,1.46,162.51-51.62,162.51-51.62V471.56c0,0,61.93-11.79,81.93-30.35c0,0-100.39-29.67-110.82-42.4
		c0,0,1.2-29.95-12.24-61.31c-12.54-29.26-31.81-64.75-82.69-73.28c0,0-130.6-27.92-130.6,140.21
		C387.4,404.43,278.43,452.69,264.95,435.76z"/>
</g>
<g id="레이어_9">
	<path class="st5" d="M555.04,330.95c7.27,0.36,14.55,0.72,21.82,1.08c21.65,1.07,43.3,2.15,64.95,3.22
		c-28.69,12.32-60.7,16.79-91.67,12.78C555.12,343.62,558.7,337.66,555.04,330.95z"/>
</g>
<g id="레이어_10">
	<path class="st6" d="M548.46,355.67c6.24-5.1,15.01-5.13,22.93-6.64c8.92-1.69,39.82-6.01,48.45-8.82
		c13.06-4.26,2.14,3.72,15.74,1.75c-22.85,15.7-45.23,19.72-71,29.94c-3.06,1.22-6.59,2.37-9.54,0.9c-3.13-1.57-4.26-5.51-4.26-9.02
		S551.59,356.74,548.46,355.67z"/>
</g>
<g id="레이어_7">
	<path class="st7" d="M377.38,647.74l106.77,44.49l132.73-43.01l2.97-144.96l-43.75-34.48l-1.11-91.2l-19.28,2.22l-4.08-64.88
		c0,0-34.13-41.45-78.97-23.73c0,0-72.18,12.39-52.65,159.42l-45.6,56.72L377.38,647.74z"/>
	<path class="st7" d="M255.3,435.76c0,0,29.39,25.38,119.11-25.8l17.15-8.68c0,0-5.55-120.49,88.14-132.43
		c0,0,57.7-14.76,101.09,37.59l9.08-9.53c0,0-164.58-151.9-214.65,81.23L255.3,435.76z"/>
	<path class="st7" d="M617.77,382.85c0.4,0.4-43.98,28.08,115.78,60.72l2.43-9.31L617.77,382.85z"/>
	<path class="st7" d="M561.9,315.65l-3.24,17.41c0,0,65.99,12.15,76.92,8.91l-0.81-10.12L561.9,315.65z"/>
</g>
<g id="레이어_6">
	<polygon class="st8" points="380.15,513.59 469.65,551.04 471.52,686.97 376.03,649.15 	"/>
</g>
<g id="레이어_1">
	<g>
		<path class="st9" d="M629.15,559.36c0,32.34,0,64.04,0,95.12c-17.19,9.4-34.66,14.72-51.86,20.66
			c-11.43,3.95-22.91,7.83-34.55,11.12c-19.6,5.53-38.11,14.51-58.36,17.99c-5.53,0.95-10.22-1.34-14.66-3.24
			c-21.66-9.26-42.87-19.59-64.61-28.65c-12.72-5.3-25.59-10.23-37.69-15.86c-2.53-2.89-2-5.98-2-8.92
			c-0.04-44.56,0.33-89.12-0.36-133.66c-0.17-10.87,2.97-18.19,11.36-24.82c22.97-18.13,44.85-37.6,68.55-54.85
			c8.88-6.46,17.02-13.98,26.04-20.36c4.19-2.97,8.01-2.72,12.53-0.7c23.86,10.66,46.97,22.89,69.98,35.16
			c15.1,8.05,28.84,18.66,43.18,28.13c8.65,5.71,17.22,11.55,25.99,17.08c4.58,2.89,6.73,6.54,6.65,12.09
			C629.08,523.33,629.18,541.03,629.15,559.36z M517.23,510.17c-8.03,7.52-15.1,16.02-23.85,22.82c-2.76,2.14-5.91,4.4-6.14,8.55
			c-0.38,7.01-0.98,14.02-1.12,21.04c-0.55,27.91,0.49,55.84-1.17,83.75c-0.75,12.68-0.69,25.47,1.81,40.09
			c42.16-14.75,84.66-25.83,125.55-42.69c-0.18-45.82,0.88-90.96-1.92-136.56c-16.53-10.66-33.04-21.45-49.73-31.95
			c-3.28-2.06-6.74-1.34-9.8,1.75C540,487.96,528.92,498.74,517.23,510.17z M455.59,535.55c-23.21-9.57-45.76-20.79-70.64-29.21
			c0,46.5,0,91.8,0,137.9c26.5,14.32,54.64,24.7,82,37.91c3.02-8.07,0.66-14.41,0.69-20.67c0.18-36.04,0.15-72.07,0.09-108.11
			C467.71,538.13,469.52,541.17,455.59,535.55z M443.52,510.99c10.58,4.86,21.36,9.17,32.72,12.71
			c24.05-18.1,43.16-40.82,65.59-61.83c-23.44-9.24-43.22-21.38-64.82-31.07c-25.43,19.26-49.64,39.96-75.24,60.83
			C415.41,500.14,429.61,504.14,443.52,510.99z"/>
		<path class="st9" d="M655.83,329.31c5.71,8.31,4.51,12.57-4.02,16.84c-6.46,3.23-12.67,6.95-19.17,10.07
			c-10.05,4.83-10.36,5.15-9.41,19.15c9.96,4.21,20.38,8.81,30.95,13.03c28.78,11.48,57.97,22.09,85.23,36.96
			c8.56,4.67,13.57,8.93,5.1,20.58c-15.93,21.93-36.9,36.3-61.43,46.71c-10.41,4.41-21.07,7.93-31.64,11.8
			c-2.17,0.8-4.32,1.84-7.43,0.82c-2.02-5.75-0.77-11.76-0.63-18.17c30.55-10.96,60.56-22.42,83.56-48.01
			c-33.6-18.97-70.23-27.76-104.89-45.65c-1.07,13.3-3.17,24.3-19.91,19.65c-4.42-12.87,1.79-26.77-1.15-41.53
			c-12.24,4.83-23.72,9.69-33.92,17.43c-1.76-0.28-3.43-0.57-5.1-0.82c-13.04-1.92-18.57-7.57-18.65-20.65
			c-0.13-19.83-1.57-39.65-0.18-59.48c0.61-8.65,5.26-13,13.73-11.62c4.38,0.71,8.65,2.23,12.92,3.54c3.27,1.01,6.47,2.09,9.82,0.84
			c1.06-1.87,0.71-3.46-0.58-4.81c-12.29-12.75-25.18-25.07-41.97-31.39c-18-6.77-36.66-10.52-56.3-7.81
			c-32.93,4.55-58.88,20.06-77.29,47.71c-14.5,21.78-19.1,46.01-16.75,71.84c1.25,13.76,0.62,27.54,0.42,41.23
			c-4.99,1.75-9.15,0.55-12.97,0.79c-6.11-6.55-2.1-15-5.94-23.04c-33.95,12.65-67.88,24.94-100.58,40.88
			c0.3,8.58,6.98,12.03,11.79,16.13c20.41,17.4,44.9,27.19,69.84,35.95c0.59,0.21,1.12,0.56,2.41,1.22
			c-0.35,5.46,0.49,11.25-1.11,17.06c-8.9,0.91-15.94-3.54-23.07-6.17c-22.19-8.2-43.72-18.07-61.09-34.79
			c-6.88-6.62-13.23-13.86-19.24-21.29c-5.25-6.48-4.49-11.15,2.04-16.47c9.18-7.48,20.21-11.61,30.97-16.09
			c17.63-7.35,35.41-14.34,53.13-21.5c11.19-4.52,22.36-9.05,34.33-13.9c-1.48-44.35,12.58-82.27,47.81-110.38
			c20.64-16.47,45.09-25.11,71.1-27.03c48.49-3.57,100.95,24.37,120.52,72.25C622.65,317.68,640.08,320.74,655.83,329.31z
			 M563.02,319.01c-0.5,1.13-1.43,2.26-1.44,3.39c-0.1,12.57-0.17,25.14,0.02,37.7c0.04,2.61,0.4,5.57,3.83,7.62
			c19.63-10.56,41.12-18.05,61.38-29.43c-2.93-2.97-5.42-3.68-7.84-4.39c-12.19-3.61-24.37-7.29-36.64-10.63
			C576.26,321.62,570.89,317.17,563.02,319.01z"/>
		<path class="st9" d="M485.94,355.19c-8.72-5.04-11.98-11.67-10.38-20.24c1.1-5.92,7.92-12.53,14.33-13.9
			c5.86-1.25,14.39,2.55,18.04,8.39c3.56,5.69,3.24,11.56,0.13,17.45c-3.56,6.76-9.15,9.76-16.64,9.33
			C489.74,356.14,488.09,355.62,485.94,355.19z"/>
		<path class="st9" d="M671.85,641.09c5.03-5.18,10.04-7.71,16.41-2.82c4.74,3.63,7.18,8.21,4.82,13.79
			c-2.37,5.6-7.17,9.3-13.42,8.95c-6.12-0.34-9.69-4.77-11.55-10.37C666.83,646.77,670.42,644.53,671.85,641.09z"/>
		<path class="st9" d="M536.78,551.55c2.49-0.71,4.49-1.74,7.51,0c0,9.71,0,19.94,0,30.93c-8.4,2.03-16.84,6.1-27,6.33
			c-1.84-10.67-0.65-20.9-0.82-31.28C522.98,553.83,529.72,553.03,536.78,551.55z"/>
		<path class="st9" d="M585.31,572.94c-9.16,0.28-16.33,7.3-26.22,6.16c-0.9-10.82-0.87-21.28-0.15-31.79
			c8.69-4.79,18.17-3.88,25.91-6.73c2.47,1.24,3.1,2.59,2.91,4.16c-0.92,7.87-0.42,15.74-0.13,23.61
			C587.71,570.13,587.45,571.76,585.31,572.94z"/>
		<path class="st9" d="M543.74,634.34c-8.14,4.49-17.05,4.2-26.23,7.72c-2.04-11.2-0.86-21.42-1.06-32.49
			c9.23-2.49,17.75-5.82,27.88-6.47C544.61,613.81,545.52,623.86,543.74,634.34z"/>
		<path class="st9" d="M587.39,611.81c-0.12,4.2,0.6,7.86-1.15,12.25c-7.68,1.66-15.82,3.41-25.17,5.43
			c-2.62-10.19-2.27-19.88-2.2-30.26c9.97-0.93,18.53-5.08,28.5-5.17C587.38,599.93,587.38,605.56,587.39,611.81z"/>
	</g>
</g>
</svg>
