<?xml version="1.0" encoding="utf-8"?>
<!-- Generator: Adobe Adobe Illustrator 24.2.0, SVG Export Plug-In . SVG Version: 6.00 Build 0)  -->
<svg version="1.1" xmlns="http://www.w3.org/2000/svg" xmlns:xlink="http://www.w3.org/1999/xlink" x="0px" y="0px"
	 viewBox="0 0 1024 1024" style="enable-background:new 0 0 1024 1024;" xml:space="preserve">
<style type="text/css">
	.st0{fill:#F6F1CA;}
	.st1{fill:#FBDB77;}
	.st2{fill:#F9BA57;}
	.st3{fill:#E7E6CF;}
	.st4{fill:#FCDC77;}
	.st5{fill:#F9BB57;}
	.st6{fill:#FFFFFF;}
	.st7{fill:#BAB49C;}
	.st8{fill:#141524;}
</style>
<g id="레이어_2">
	<rect class="st0" width="1024" height="1024"/>
</g>
<g id="레이어_3">
	<ellipse class="st1" cx="486.3" cy="743.58" rx="231" ry="42"/>
</g>
<g id="레이어_5">
	<ellipse class="st2" cx="491.4" cy="737.89" rx="99.5" ry="8"/>
</g>
<g id="레이어_8">
	<path class="st3" d="M644.14,466.44c-1.99-7.38-5.51-14.12-7.77-21.4c-1.83-5.91-3.3-11.95-4.14-18.06
		c-1.41-2.09-2.66-4.12-3.71-5.92c-3.15-5.37-5.7-10.98-7.82-16.76c-3.75-2.03-6.47-3.89-7.78-5.48c0,0,1.2-29.95-12.24-61.31
		c-12.54-29.26-31.81-64.75-82.69-73.28c0,0-130.6-27.92-130.6,140.21c0,0-4.15,1.84-10.91,4.66c0.04,0.18,0.08,0.37,0.12,0.55
		c0.47,0.9,0.84,1.86,1.06,2.86c0.05,0.24,0.11,0.48,0.17,0.72c1.27,5.43-0.57,11.9-4.86,15.61c-0.08,0.16-0.14,0.33-0.22,0.49
		c-0.57,1.13-1.24,2.21-1.8,3.35c-1.13,2.32-1.9,5.38-2.94,8.22c-2.58,7.07-6.5,12.89-9.48,19.61c-0.28,0.63-0.26,0.98-0.79,2.55
		c-0.53,1.54-1.13,3.06-1.63,4.61c-0.93,2.88-1.57,5.81-2.34,8.73c-0.57,2.16-1.33,4.48-2.07,6.83c1.03,0.17,2.06,0.33,3.09,0.46
		l0.45,178.07c0,0,89.67,51.96,124.05,53.17c41.43,1.46,162.51-51.62,162.51-51.62V471.56c0,0,1.3-0.25,3.58-0.73
		C644.96,469.36,644.53,467.89,644.14,466.44z"/>
</g>
<g id="레이어_9">
	<path class="st4" d="M555.04,330.95c7.27,0.36,14.55,0.72,21.82,1.08c21.65,1.07,43.3,2.15,64.95,3.22
		c-28.69,12.32-60.7,16.79-91.67,12.78C555.12,343.62,558.7,337.66,555.04,330.95z"/>
</g>
<g id="레이어_10">
	<path class="st5" d="M548.46,355.67c6.24-5.1,15.01-5.13,22.93-6.64c8.92-1.69,39.82-6.01,48.45-8.82
		c13.06-4.26,2.14,3.72,15.74,1.75c-22.85,15.7-45.23,19.72-71,29.94c-3.06,1.22-6.59,2.37-9.54,0.9c-3.13-1.57-4.26-5.51-4.26-9.02
		S551.59,356.74,548.46,355.67z"/>
</g>
<g id="레이어_7">
	<path class="st6" d="M576.09,469.79l-1.11-91.2l-19.28,2.22l-4.08-64.88c0,0-34.13-41.45-78.97-23.73c0,0-72.18,12.39-52.65,159.42
		l-8.21,10.22c3.12,5.92,6.79,11.5,9.97,17.39c2.19,4.05,4.29,8.19,6.3,12.37c0.38,0.49,0.75,0.99,1.09,1.52
		c6.87,5.26,12.88,13.22,16.69,20.69c4.25,8.34,5.4,22.96-3.87,28.6c-3.17,1.93-6.1,2.14-8.81,1.34c-3.51,4.4-8.54,7.51-14.33,8.6
		c-9.2,1.73-17.71-4.6-25.94-7.86c-4.29-1.7-8.65-3.22-12.38-5.99c-2.07-1.54-3.89-3.29-5.57-5.16l2.43,114.4l106.77,44.49
		l132.73-43.01l2.97-144.96L576.09,469.79z"/>
	<path class="st6" d="M375.22,378.13l-1.37,0.66c0.29,1.88,0.54,3.77,0.78,5.66c-0.01-0.07,0.36,2.73,0.39,3.13
		c0.99,6.71,2.4,13.46,3.9,20.09l12.63-6.4c0,0-5.55-120.49,88.14-132.43c0,0,57.7-14.76,101.09,37.59l9.08-9.53
		C589.87,296.9,425.3,145,375.22,378.13z"/>
	<path class="st6" d="M561.9,315.65l-3.24,17.41c0,0,65.99,12.15,76.92,8.91l-0.81-10.12L561.9,315.65z"/>
	<path class="st6" d="M555.05,533.93c-6.3-17.42,1.44-36.68,10.86-52.63c11.74-19.9,26.31-38.13,43.14-53.97
		c0.49,7.76,0.99,15.53,1.48,23.29c-4.79,1.91-7.98,6.39-10.9,10.63c-16.69,24.3-33.83,49.8-37.77,79.02
		C557.75,538.93,554.62,535.01,555.05,533.93z"/>
</g>
<g id="레이어_6">
	<path class="st4" d="M469.65,551.04l-25.75-10.77c0,0.02-0.01,0.03-0.01,0.05c-0.61,2.23-1.95,3.99-3.67,5.31
		c0.06,1.43-0.25,2.89-0.97,4.21c-0.57,1.04-1.3,1.89-2.13,2.58c-0.5,0.62-1.12,1.19-1.85,1.67c-4.27,2.78-11.23,3.45-16.58,1.54
		c-3.21-0.28-6.3-1.98-8.94-3.72c-2.56-1.69-5-3.44-7.26-5.35c-4.98-1.75-9.77-4.22-14.28-6.79c-3.03-1.73-6.16-3.64-8.68-5.95
		l-3.5,115.34l95.49,37.82L469.65,551.04z"/>
</g>
<g id="레이어_16">
	<path class="st6" d="M555.75,540.16c0,0,5.26-75.61,44.98-107.41l12.08,18.13c0,0-59.12,87.97-43.97,91.97"/>
</g>
<g id="레이어_15">
	<path class="st3" d="M598.24,426.06c-16.07,23.62-28.76,49.54-37.56,76.73c-3.79,11.7-6.12,26.42,2.99,34.68
		c5.34,4.84,13.36,5.8,20.37,4.11c7.01-1.68,13.23-5.65,19.16-9.75c13.47-9.32,26.75-20.37,32.86-35.57
		c6.36-15.82,4-33.62,1.54-50.49c-0.72-4.94-1.58-10.19-4.93-13.88c-2.18-2.4-5.19-3.87-8.2-5.07c-7.79-3.1-16.16-4.77-24.54-4.89
		C597.63,421.89,594.39,423.38,598.24,426.06z"/>
</g>
<g id="레이어_14">
	<path class="st6" d="M555.8,536.42c-5.16-13.38-2.74-28.57,2.3-41.99c8.46-22.53,17.29-39.46,35.94-54.67
		c0.05,5.01,10.06,3.25,14.73,5.05c-1.25-1.12-3.12,4.32-4.14,5.65c-8.84,11.65-15.88,24.55-22.67,37.5
		c-4.58,8.74-9.1,17.61-11.52,27.18c-2.42,9.56-2.61,19.98,1.34,29.02C564.97,546.7,557.54,540.93,555.8,536.42z"/>
	<path class="st6" d="M442.21,547.72c5.16-13.38,2.74-28.57-2.3-41.99c-8.46-22.53-17.29-39.46-35.94-54.67
		c-0.05,5.01-10.06,3.25-14.73,5.05c1.25-1.12,3.12,4.32,4.14,5.65c8.84,11.65,15.88,24.55,22.67,37.5
		c4.58,8.74,9.1,17.61,11.52,27.18c2.42,9.56,2.61,19.98-1.34,29.02C433.04,558,440.47,552.23,442.21,547.72z"/>
</g>
<g id="레이어_17">
	<path class="st7" d="M570.54,545.19c11.78-8.22,23.64-16.51,33.72-26.75c10.08-10.24,18.37-22.68,21.55-36.69
		c2.23-9.82,1.89-20.03,1.4-30.09c-0.43-8.92-0.98-17.93-3.61-26.46c5.68,11.13,11.36,22.26,17.04,33.39
		c4.34,8.51,8.81,17.61,7.91,27.12c-1.18,12.49-11.17,22.13-20.9,30.05c-10.66,8.68-21.8,16.77-33.35,24.23
		C587.21,544.57,577.75,548.91,570.54,545.19z"/>
	<path class="st7" d="M428.32,551.56c-11.78-8.22-23.64-16.51-33.72-26.75s-18.37-22.68-21.55-36.69
		c-2.23-9.82-1.89-20.03-1.4-30.09c0.43-8.92,0.98-17.93,3.61-26.46c-5.68,11.13-11.36,22.26-17.04,33.39
		c-4.34,8.51-8.81,17.61-7.91,27.12c1.18,12.49,11.17,22.13,20.9,30.05c10.66,8.68,21.8,16.77,33.35,24.23
		C411.65,550.94,421.11,555.28,428.32,551.56z"/>
</g>
<g id="레이어_1">
	<g>
		<path class="st8" d="M629.33,505.78c-2.94,3.19-6.11,6.01-8.85,8.27c-3.05,2.5-6.08,5.35-9.32,7.83
			c1.81,40.62,0.99,80.97,1.15,121.85c-40.9,16.87-83.39,27.94-125.55,42.69c-2.49-14.61-2.56-27.4-1.81-40.09
			c1.66-27.91,0.62-55.84,1.17-83.75c0.14-7.02,0.74-14.03,1.12-21.04c0.23-4.15,3.38-6.41,6.14-8.55
			c8.75-6.79,15.82-15.3,23.85-22.82c11.69-11.43,22.77-22.21,33.64-33.21c3.06-3.1,6.52-3.81,9.8-1.75
			c4.12,2.59,8.22,5.2,12.32,7.82c1.66-3.82,3.07-7.7,4.75-11.53c0.8-1.82,1.6-3.71,2.72-5.37c0.06-0.1,0.23-0.26,0.44-0.47
			c-8.91-6.17-17.88-12.25-27.38-17.32c-23.02-12.27-46.12-24.49-69.98-35.16c-4.52-2.02-8.34-2.27-12.53,0.7
			c-9.01,6.38-17.16,13.9-26.04,20.36c-10.84,7.89-21.29,16.25-31.65,24.72c3.36,5.09,6.42,10.26,9.27,15.55
			c18.17-15.01,35.99-29.74,54.44-43.72c21.6,9.69,41.38,21.83,64.82,31.07c-22.44,21-41.55,43.73-65.59,61.83
			c-11.36-3.54-22.15-7.84-32.72-12.71c-1.81-0.89-3.63-1.72-5.45-2.54c0.83,2.12,1.62,4.27,2.33,6.45
			c1.58,4.85,3.13,10.31,3.43,15.65c3.91,1.7,7.83,3.38,11.77,5c13.92,5.62,12.12,2.58,12.15,17.82
			c0.06,36.04,0.09,72.07-0.09,108.11c-0.03,6.26,2.33,12.6-0.69,20.67c-27.36-13.21-55.5-23.59-82-37.91v-99.94
			c-0.62-0.32-1.24-0.65-1.82-0.98c-6.63-3.83-12.2-9.47-16.64-15.67c-0.45-0.63-0.88-1.28-1.3-1.94
			c0.47,40.61,0.17,81.24,0.21,121.86c0,2.94-0.53,6.03,2,8.92c12.1,5.64,24.97,10.56,37.69,15.86
			c21.74,9.07,42.95,19.39,64.61,28.65c4.44,1.9,9.13,4.19,14.66,3.24c20.25-3.48,38.76-12.46,58.36-17.99
			c11.64-3.28,23.12-7.16,34.55-11.12c17.2-5.95,34.67-11.27,51.86-20.66c0-31.09,0-62.78,0-95.12
			C629.18,541.07,629.08,523.42,629.33,505.78z"/>
		<path class="st8" d="M655.83,329.31c-15.75-8.57-33.19-11.63-48.75-18.11c-19.57-47.88-72.03-75.82-120.52-72.25
			c-26.02,1.92-50.46,10.56-71.1,27.03c-35.23,28.11-49.29,66.03-47.81,110.38c-0.08,0.03-0.16,0.07-0.25,0.1
			c0.11,1,0.18,2,0.27,2.97c0.31,3.13,0.44,6.27,0.44,9.41c0,0.32-0.03,0.62-0.09,0.9c0.1,0.87,0.19,1.74,0.27,2.61
			c0.16,1.73,0.52,3.48,0.83,5.22c2.3,7.35-0.49,14.85,5.06,20.8c3.83-0.24,7.99,0.96,12.97-0.79c0.2-13.69,0.83-27.47-0.42-41.23
			c-2.35-25.83,2.24-50.06,16.75-71.84c18.42-27.66,44.36-43.17,77.29-47.71c19.64-2.71,38.3,1.04,56.3,7.81
			c16.79,6.32,29.68,18.64,41.97,31.39c1.29,1.34,1.64,2.94,0.58,4.81c-3.35,1.25-6.56,0.17-9.82-0.84
			c-4.27-1.32-8.54-2.83-12.92-3.54c-8.48-1.38-13.13,2.97-13.73,11.62c-1.39,19.84,0.05,39.66,0.18,59.48
			c0.09,13.08,5.61,18.73,18.65,20.65c1.67,0.25,3.34,0.53,5.1,0.82c10.19-7.74,21.67-12.6,33.92-17.43
			c2.95,14.75-3.26,28.66,1.15,41.53c13.9,3.87,17.7-3.08,19.21-13.16c0.24-2.37,0.46-4.74,0.57-7.11
			c0.38-7.79-0.04-15.64,0.79-23.4c0.03-0.3,0.1-0.58,0.18-0.85c-0.1-7.49,1.68-8.47,9.76-12.35c6.5-3.13,12.72-6.85,19.17-10.07
			C660.35,341.88,661.54,337.62,655.83,329.31z M565.44,367.72c-3.43-2.05-3.79-5-3.83-7.62c-0.19-12.57-0.13-25.13-0.02-37.7
			c0.01-1.14,0.94-2.26,1.44-3.39c7.87-1.84,13.24,2.61,19.31,4.26c12.27,3.34,24.45,7.02,36.64,10.63
			c2.42,0.72,4.91,1.43,7.84,4.39C606.56,349.67,585.07,357.17,565.44,367.72z"/>
		<path class="st8" d="M671.85,641.09c5.03-5.18,10.04-7.71,16.41-2.82c4.74,3.63,7.18,8.21,4.82,13.79
			c-2.37,5.6-7.17,9.3-13.42,8.95c-6.12-0.34-9.69-4.77-11.55-10.37C666.83,646.77,670.42,644.53,671.85,641.09z"/>
		<path class="st8" d="M536.78,551.55c2.49-0.71,4.49-1.74,7.51,0c0,9.71,0,19.94,0,30.93c-8.4,2.03-16.84,6.1-27,6.33
			c-1.84-10.67-0.65-20.9-0.82-31.28C522.98,553.83,529.72,553.03,536.78,551.55z"/>
		<path class="st8" d="M585.31,572.94c-9.16,0.28-16.33,7.3-26.22,6.16c-0.9-10.82-0.87-21.28-0.15-31.79
			c8.69-4.79,18.17-3.88,25.91-6.73c2.47,1.24,3.1,2.59,2.91,4.16c-0.92,7.87-0.42,15.74-0.13,23.61
			C587.71,570.13,587.45,571.76,585.31,572.94z"/>
		<path class="st8" d="M543.74,634.34c-8.14,4.49-17.05,4.2-26.23,7.72c-2.04-11.2-0.86-21.42-1.06-32.49
			c9.23-2.49,17.75-5.82,27.88-6.47C544.61,613.81,545.52,623.86,543.74,634.34z"/>
		<path class="st8" d="M587.39,611.81c-0.12,4.2,0.6,7.86-1.15,12.25c-7.68,1.66-15.82,3.41-25.17,5.43
			c-2.62-10.19-2.27-19.88-2.2-30.26c9.97-0.93,18.53-5.08,28.5-5.17C587.38,599.93,587.38,605.56,587.39,611.81z"/>
	</g>
	<g id="레이어_13">
		<path class="st8" d="M407.82,446.86c19.76,9.41,48.19,71.88,46.54,97.78c-6.18,17.73,2.48,22.06-21.05,22.85
			c-28.34,6.77-76.24-32.12-85.84-63.93c-10.31-19.32,14.87-71.73,25.01-96.45c8.16-4.41,11.4,0.28,14.76,6.09
			c5.13,8.87-24.49,36.83-25.97,74.76c1.49,35.36,58.69,74.66,74.26,59.94c9.34-8.83-0.97-40.46-34.26-94.7
			c0.39-0.81,2.25-3.45,3.19-3.19C405.01,449.63,407.31,447.32,407.82,446.86z"/>
		<path class="st8" d="M590.65,436.6c-19.76,9.41-48.19,71.88-46.54,97.77c6.18,17.73-2.48,22.06,21.05,22.85
			c28.34,6.77,76.24-32.12,85.84-63.93c10.31-19.32-14.87-71.73-25.01-96.45c-8.16-4.41-11.4,0.28-14.76,6.09
			c-5.13,8.87,24.49,36.83,25.97,74.75c-1.49,35.36-58.69,74.66-74.26,59.94c-9.34-8.83,0.97-40.46,34.26-94.7
			c-0.39-0.81-2.25-3.45-3.19-3.19C593.46,439.37,591.16,437.06,590.65,436.6z"/>
	</g>
</g>
<g id="레이어_18">
	<path class="st8" d="M468.34,344.9l9.82-0.95c0,0-1.78,13.44,9.65,15.37c0,0,11.48,4.19,14.22-16.8l9.97,0.33
		c0,0-2.07,23.66-17.07,25.61C494.93,368.46,470.84,377.1,468.34,344.9z"/>
</g>
</svg>
